<?xml version="1.0" encoding="UTF-8"?>
<!DOCTYPE svg PUBLIC "-//W3C//DTD SVG 1.0//EN" "http://www.w3.org/TR/2001/REC-SVG-20010904/DTD/svg10.dtd">
<!-- Creator: CorelDRAW 2018 (64-Bit) -->
<svg xmlns="http://www.w3.org/2000/svg" xml:space="preserve" width="119px" height="21px" version="1.0" shape-rendering="geometricPrecision" text-rendering="geometricPrecision" image-rendering="optimizeQuality" fill-rule="evenodd" clip-rule="evenodd"
viewBox="0 0 3478 623"
 xmlns:xlink="http://www.w3.org/1999/xlink">
 <g id="Слой_x0020_1">
  <metadata id="CorelCorpID_0Corel-Layer"/>
  <g id="_2356278811072">
   <polygon fill="none" stroke="white" stroke-width="44" stroke-miterlimit="22.9256" points="328,48 417,222 610,253 472,391 502,584 328,496 153,584 183,392 46,253 238,222 "/>
   <polygon fill="none" stroke="white" stroke-width="44" stroke-miterlimit="22.9256" points="1033,48 1123,222 1315,253 1178,391 1208,584 1033,496 859,584 889,392 751,253 944,222 "/>
   <polygon fill="none" stroke="white" stroke-width="44" stroke-miterlimit="22.9256" points="1739,48 1828,222 2021,253 1883,391 1913,584 1739,496 1565,584 1594,392 1457,253 1650,222 "/>
   <polygon fill="none" stroke="white" stroke-width="44" stroke-miterlimit="22.9256" points="2445,48 2534,222 2727,253 2589,391 2619,584 2445,496 2270,584 2300,392 2163,253 2355,222 "/>
   <polygon fill="none" stroke="white" stroke-width="44" stroke-miterlimit="22.9256" points="3150,48 3239,222 3432,253 3295,391 3324,584 3150,496 2976,584 3006,392 2868,253 3061,222 "/>
  </g>
 </g>
</svg>
