<?xml version="1.0" encoding="UTF-8"?>
<!DOCTYPE svg PUBLIC "-//W3C//DTD SVG 1.0//EN" "http://www.w3.org/TR/2001/REC-SVG-20010904/DTD/svg10.dtd">
<!-- Creator: CorelDRAW 2018 (64-Bit) -->
<svg xmlns="http://www.w3.org/2000/svg" xml:space="preserve" width="40px" height="36px" version="1.0" shape-rendering="geometricPrecision" text-rendering="geometricPrecision" image-rendering="optimizeQuality" fill-rule="evenodd" clip-rule="evenodd"
viewBox="0 0 146 134"
 xmlns:xlink="http://www.w3.org/1999/xlink">
 <g id="Слой_x0020_1">
  <metadata id="CorelCorpID_0Corel-Layer"/>
  <g id="_2355922944560">
   <path fill="none" stroke="white" stroke-width="6" stroke-miterlimit="22.9256" d="M73 17l2 -3c16,-15 41,-15 56,0l0 0c16,16 16,41 0,56l-8 9m-66 31c-3,4 -8,4 -12,0l0 0c-3,-3 -3,-9 0,-12l27 -27c1,-1 1,-1 0,-1l0 0c0,-1 0,-1 -1,0l-6 6 -21 21c-3,3 -9,3 -12,0l0 0c-4,-4 -4,-9 0,-12l22 -23 5 -5c0,0 0,0 0,-1l0 0c0,0 -1,0 -1,0l-5 5 -22 22c-4,4 -9,4 -13,0l0 0c-3,-3 -3,-8 0,-12l36 -36 6 -6 14 14c11,11 22,8 27,3l-29 -29"/>
   <path fill="none" stroke="white" stroke-width="6" stroke-miterlimit="22.9256" d="M99 67l0 0c3,-3 9,-3 12,0l9 9c4,4 4,9 0,13l0 0c-3,3 -9,3 -12,0l-9 -10c-3,-3 -3,-8 0,-12zm-40 40l0 0c3,-3 9,-3 12,0l10 9c3,4 3,9 0,12l0 0c-4,4 -9,4 -13,0l-9 -9c-3,-3 -3,-9 0,-12zm13 -13l0 0c4,-4 9,-4 13,0l9 9c3,3 3,9 0,12l0 0c-4,4 -9,4 -12,0l-10 -9c-3,-3 -3,-9 0,-12zm14 -14l0 0c3,-3 8,-3 12,0l9 10c3,3 3,9 0,12l0 0c-3,3 -9,3 -12,0l-9 -9c-4,-4 -4,-9 0,-13z"/>
   <path fill="none" stroke="white" stroke-width="6" stroke-miterlimit="22.9256" d="M16 73l-2 -2c-15,-15 -15,-40 0,-56l0 0c16,-15 41,-15 56,0l2 2"/>
  </g>
 </g>
</svg>
