<?xml version="1.0" encoding="UTF-8"?>
<!DOCTYPE svg PUBLIC "-//W3C//DTD SVG 1.0//EN" "http://www.w3.org/TR/2001/REC-SVG-20010904/DTD/svg10.dtd">
<!-- Creator: CorelDRAW 2018 (64-Bit) -->
<svg xmlns="http://www.w3.org/2000/svg" xml:space="preserve" width="1495px" height="381px" version="1.0" shape-rendering="geometricPrecision" text-rendering="geometricPrecision" image-rendering="optimizeQuality" fill-rule="evenodd" clip-rule="evenodd"
viewBox="0 0 149500 38141"
 xmlns:xlink="http://www.w3.org/1999/xlink">
 <g id="Слой_x0020_1">
  <metadata id="CorelCorpID_0Corel-Layer"/>
  <path fill="#2B2A29" d="M0 19877l2243 0 0 -5339 1463 -1482 -17 -18 8387 -8507 19 18 4460 -4549 -2896 0 -11416 11869 0 -11869 -2243 0 0 19877zm98025 -769c-305,262 -684,462 -1135,600 -451,138 -917,207 -1397,207 -1164,0 -2067,-313 -2707,-938 -640,-626 -960,-1521 -960,-2685l0 -6353 -1965 0 0 -1725 1965 0 0 -3332 2095 0 0 3332 3318 0 0 1725 -3318 0 0 6265c0,626 157,1106 470,1441 312,335 760,502 1342,502 640,0 1186,-182 1637,-546l655 1507zm49379 -19075l2096 0 0 19751 -2096 0 0 -19751zm-2903 14032c0,160 -15,371 -44,633l-9386 0c131,1019 578,1837 1342,2456 764,618 1714,928 2849,928 1382,0 2496,-466 3340,-1398l1157 1354c-524,611 -1175,1077 -1954,1397 -779,320 -1648,480 -2609,480 -1222,0 -2306,-251 -3252,-753 -946,-502 -1678,-1204 -2194,-2106 -517,-903 -775,-1921 -775,-3057 0,-1120 251,-2132 753,-3034 502,-902 1193,-1604 2074,-2107 880,-502 1874,-753 2980,-753 1106,0 2092,251 2958,753 866,503 1542,1205 2030,2107 487,902 731,1936 731,3100zm-5719 -4192c-1005,0 -1845,306 -2522,917 -677,612 -1073,1412 -1189,2402l7422 0c-117,-975 -513,-1772 -1190,-2391 -677,-618 -1517,-928 -2521,-928zm-12487 12274l-6156 -13933 2183 0 3973 9278 3973 -9278 2183 0 -6156 13933zm-12749 -14042c1601,0 2827,393 3678,1179 852,786 1278,1958 1278,3515l0 6985 -1987 0 0 -1528c-349,539 -848,950 -1495,1234 -648,283 -1416,425 -2303,425 -1296,0 -2333,-313 -3111,-938 -779,-626 -1168,-1448 -1168,-2467 0,-1019 371,-1837 1113,-2456 743,-619 1921,-928 3537,-928l3318 0 0 -415c0,-902 -262,-1593 -786,-2073 -524,-481 -1295,-721 -2314,-721 -684,0 -1353,113 -2008,339 -655,225 -1208,527 -1659,905l-874 -1571c597,-481 1310,-848 2140,-1103 829,-254 1710,-382 2641,-382zm-480 10195c800,0 1492,-178 2074,-535 582,-357 1004,-862 1266,-1517l0 -1616 -3231 0c-1775,0 -2663,597 -2663,1791 0,582 225,1040 677,1375 451,334 1077,502 1877,502zm-10500 -8143c364,-669 902,-1179 1615,-1528 713,-349 1579,-524 2598,-524l0 2030c-116,-14 -276,-21 -480,-21 -1135,0 -2027,338 -2674,1015 -648,676 -972,1641 -972,2892l0 5763 -2095 0 0 -11570 2008 0 0 1943zm-18343 16153c456,0 827,370 827,826 0,457 -371,827 -827,827 -457,0 -827,-370 -827,-827 0,-456 370,-826 827,-826zm19260 3900c453,-667 1218,-1107 2081,-1107l0 0c1384,0 2514,1131 2514,2515l0 4081 -902 0 0 -4081c0,-887 -725,-1613 -1612,-1613l0 0c-887,0 -1612,726 -1612,1613l0 4081 -35 0 -867 0 -35 0 0 -4081c0,-887 -725,-1613 -1612,-1613l0 0c-874,0 -1591,704 -1613,1573l0 4121 -902 0 0 -3752 0 -329 0 -2445 902 0 0 518c437,-366 1000,-588 1613,-588l0 0c862,0 1627,440 2080,1107zm-60191 4727c223,0 436,-26 638,-77 202,-52 394,-129 576,-232 181,-103 343,-228 485,-374 142,-146 265,-314 368,-504 103,-190 181,-394 232,-610 52,-217 78,-447 78,-691 0,-244 -26,-474 -77,-689 -52,-215 -130,-417 -233,-605 -103,-188 -225,-355 -368,-502 -142,-146 -304,-272 -486,-377 -182,-105 -374,-184 -575,-236 -202,-53 -415,-79 -638,-79 -227,0 -442,26 -645,79 -203,52 -394,131 -574,236 -180,105 -341,231 -481,377 -142,146 -264,314 -367,502 -103,188 -181,390 -232,605 -52,215 -78,445 -78,689 0,244 26,474 78,691 52,216 129,420 232,610 103,190 226,358 367,504 141,146 301,271 481,374 179,103 371,180 574,232 203,51 418,77 645,77zm62 -5832c308,0 602,35 882,105 280,70 545,175 796,315 250,140 474,309 670,506 197,198 366,424 508,679 142,254 249,527 320,817 71,290 106,598 106,922 0,329 -35,639 -106,931 -71,292 -178,566 -320,821 -142,254 -310,481 -506,678 -195,198 -418,367 -666,507 -248,139 -514,245 -795,315 -280,69 -577,104 -889,104 -534,0 -1017,-110 -1448,-332 -215,-111 -412,-248 -589,-410 -142,-130 -272,-278 -389,-442l0 3520 -923 0 0 -8987 886 0 0 1179c114,-166 241,-316 382,-449 177,-168 376,-310 596,-428 219,-117 453,-205 701,-263 247,-59 509,-88 784,-88zm8741 1367c221,-436 550,-766 987,-988 438,-223 979,-334 1624,-334l0 853 -225 -13c-734,0 -1308,210 -1723,630 -416,420 -624,1009 -624,1767l0 3312 -941 0 0 -6500 902 0 0 1273zm9620 -584c-655,0 -1204,209 -1648,627 -444,418 -696,963 -757,1635l4823 0c-61,-672 -313,-1217 -757,-1635 -444,-418 -997,-627 -1661,-627zm3284 2948l-5689 0c52,706 324,1277 815,1713 491,435 1112,652 1862,652 422,0 810,-75 1163,-226 354,-151 660,-373 918,-666l517 595c-302,362 -679,638 -1131,827 -453,190 -950,285 -1493,285 -698,0 -1317,-149 -1855,-446 -539,-297 -959,-709 -1261,-1235 -301,-526 -452,-1120 -452,-1784 0,-663 144,-1258 433,-1784 288,-526 685,-935 1189,-1228 504,-293 1071,-440 1700,-440 629,0 1194,147 1694,440 500,293 892,700 1176,1222 284,521 427,1118 427,1790l-13 285zm29298 -3437l0 4081c0,1384 -1131,2514 -2515,2514l0 0c-1383,0 -2514,-1131 -2514,-2514l0 -4081 902 0 0 4081c0,887 725,1612 1612,1612l0 0c888,0 1613,-725 1613,-1612l0 -4081 902 0zm-19899 811c453,-667 1218,-1107 2081,-1107l0 0c1384,0 2514,1131 2514,2515l0 4081 -902 0 0 -4081c0,-887 -725,-1613 -1612,-1613l0 0c-887,0 -1612,726 -1612,1613l0 4081 -35 0 -867 0 -35 0 0 -4081c0,-887 -725,-1613 -1613,-1613l0 0c-873,0 -1590,704 -1612,1573l0 4121 -902 0 0 -3752 0 -329 0 -2445 902 0 0 518c437,-366 1000,-588 1612,-588l0 0c863,0 1628,440 2081,1107zm9374 -1037l902 0c0,294 0,2704 0,6526l-902 0 0 -6526zm-43767 -29173l2244 0 9002 0c3537,0 6431,2893 6431,6431l0 1c0,3537 -2894,6431 -6431,6431l-9002 0 0 7014 -2244 0 0 -7014 0 -2243 0 -8377 0 -2243zm2244 10620l8983 0c2303,0 4188,-1885 4188,-4188l0 0c0,-2304 -1885,-4189 -4188,-4189l-8983 0 0 8377zm-6785 -10620l0 11912c0,4553 -3724,8277 -8277,8277l-1 0c-4553,0 -8277,-3724 -8277,-8277l0 -11912 2243 0 0 11911c0,3320 2715,6035 6034,6035l1 0c3319,0 6035,-2715 6035,-6035l0 -11911 2242 0zm-27280 12405l9808 12629 2800 0 -11055 -14203 -1553 1574zm53026 7472l2244 0 0 -19877 -2244 0 0 19877zm7296 0l2186 0 0 -16300 12835 16300 1789 0 0 -19877 -2186 0 0 15930 -12523 -15930 -2101 0 0 19877z"/>
 </g>
</svg>
