<?xml version="1.0" encoding="UTF-8"?>
<!DOCTYPE svg PUBLIC "-//W3C//DTD SVG 1.0//EN" "http://www.w3.org/TR/2001/REC-SVG-20010904/DTD/svg10.dtd">
<!-- Creator: CorelDRAW 2018 (64-Bit) -->
<svg xmlns="http://www.w3.org/2000/svg" xml:space="preserve" width="37px" height="37px" version="1.0" shape-rendering="geometricPrecision" text-rendering="geometricPrecision" image-rendering="optimizeQuality" fill-rule="evenodd" clip-rule="evenodd"
viewBox="0 0 104 104"
 xmlns:xlink="http://www.w3.org/1999/xlink">
 <g id="Слой_x0020_1">
  <metadata id="CorelCorpID_0Corel-Layer"/>
  <g>
   <path fill="white" d="M52 0c15,0 28,6 37,15l0 0c10,10 15,23 15,37 0,15 -5,28 -15,37l0 0c-9,10 -22,15 -37,15 -14,0 -27,-5 -37,-15l0 0c-9,-9 -15,-22 -15,-37 0,-14 6,-27 15,-37l0 0c10,-9 23,-15 37,-15zm0 3c27,0 50,22 50,49 0,27 -23,50 -50,50 -27,0 -49,-23 -49,-50 0,-27 22,-49 49,-49z"/>
  </g>
  <path fill="white" fill-rule="nonzero" d="M28 39c2,-2 5,-2 8,-2 1,4 3,8 4,12 -1,2 -2,4 -4,6 4,6 10,11 17,14 2,-2 4,-4 6,-6 4,1 8,3 11,5 0,6 -5,11 -11,11 -13,-1 -24,-11 -31,-22 -4,-5 -5,-13 0,-18z"/>
  <g>
   <path fill="white" fill-rule="nonzero" d="M80 51l-3 1 0 -2 -1 -1 0 -1 -1 -1 0 -1 -1 -2 0 -1 -1 -1 0 -1 -1 -1 -1 -1 -1 -1 0 -1 -1 0 -1 -1 -1 -1 -1 -1 -1 0 -1 -1 -1 -1 -2 0 -1 0 -1 -1 -1 0 -1 0 -2 -1 -1 0 -1 0 -1 0 -2 0 -1 0 -1 0 -1 -2 2 -1 1 0 2 0 1 0 2 0 1 1 1 0 2 0 1 0 1 1 2 0 1 1 1 1 1 0 1 1 1 1 1 1 2 0 0 1 1 1 1 1 1 1 1 2 1 1 0 1 1 1 1 1 0 2 1 1 0 1 0 2 1 1zm-15 2l-2 1 -1 -1 0 0 0 -1 0 0 0 -1 0 0 -1 -1 0 0 0 -1 -1 0 0 -1 0 0 -1 0 0 -1 0 0 -1 0 0 -1 -1 0 0 0 -1 -1 0 0 -1 0 0 0 -1 0 0 0 -1 -1 0 0 -1 0 0 0 -1 0 0 0 -1 0 0 -2 0 0 1 0 1 0 0 0 1 0 1 0 0 0 1 0 1 0 0 0 1 1 1 0 0 0 1 1 0 0 1 0 0 1 1 0 0 1 1 0 0 1 1 0 0 1 0 0 1 1 0 0 0 1 1 1 0 0 0 1 0 1 0 0zm7 -1l-3 1 0 -1 0 -1 0 -1 -1 -1 0 -1 0 0 -1 -1 0 -1 -1 -1 0 0 -1 -1 0 -1 -1 0 0 -1 -1 0 -1 -1 0 0 -1 -1 -1 0 -1 -1 0 0 -1 0 -1 -1 -1 0 -1 0 -1 0 -1 0 0 -1 -1 0 -1 0 -1 1 -1 0 0 -3 1 0 1 0 1 0 1 0 1 0 1 0 1 0 1 0 1 1 1 0 1 0 1 1 0 0 1 1 1 0 1 1 1 0 1 1 0 1 1 0 1 1 0 1 1 1 0 1 1 0 0 1 1 1 0 1 0 1 1 1 0 1 0 1z"/>
  </g>
 </g>
</svg>
