<svg width="9" height="10" viewBox="0 0 9 10" fill="none" xmlns="http://www.w3.org/2000/svg">
<path d="M4.496 0.585876C6.8153 0.585876 8.6958 2.46607 8.6958 4.78568C8.6958 7.10528 6.8153 8.98547 4.496 8.98547C2.1764 8.98547 0.295898 7.10528 0.295898 4.78568C0.295898 2.46607 2.1764 0.585876 4.496 0.585876Z" stroke="white" stroke-width="0.3597" stroke-miterlimit="22.9256"/>
<path d="M4.4957 1.35208C5.4266 1.35208 6.18149 2.10697 6.18149 3.03787C6.18149 3.96877 5.4266 4.72357 4.4957 4.72357C3.5649 4.72357 2.81 3.96877 2.81 3.03787C2.81 2.10697 3.5649 1.35208 4.4957 1.35208Z" stroke="white" stroke-width="0.3597" stroke-miterlimit="22.9256"/>
<path d="M2.00131 8.16458V6.88507C2.00131 4.77517 6.9902 4.77517 6.9902 6.88507V8.16486" stroke="white" stroke-width="0.3597" stroke-miterlimit="22.9256"/>
<path d="M5.13101 5.40421L4.94049 6.19312H4.4957H4.05099L3.8605 5.40421" stroke="white" stroke-width="0.3597" stroke-miterlimit="22.9256"/>
<path d="M4.4957 6.19308H4.05099L3.92661 7.66058L4.4957 8.30206L5.06491 7.66058L4.94049 6.19308H4.4957Z" stroke="white" stroke-width="0.3597" stroke-miterlimit="22.9256"/>
</svg>
