<?xml version="1.0" encoding="UTF-8"?>
<!DOCTYPE svg PUBLIC "-//W3C//DTD SVG 1.0//EN" "http://www.w3.org/TR/2001/REC-SVG-20010904/DTD/svg10.dtd">
<!-- Creator: CorelDRAW 2018 (64-Bit) -->
<svg xmlns="http://www.w3.org/2000/svg" xml:space="preserve" width="36px" height="36px" version="1.0" shape-rendering="geometricPrecision" text-rendering="geometricPrecision" image-rendering="optimizeQuality" fill-rule="evenodd" clip-rule="evenodd"
viewBox="0 0 232 232"
 xmlns:xlink="http://www.w3.org/1999/xlink">
 <g id="Слой_x0020_1">
  <metadata id="CorelCorpID_0Corel-Layer"/>
  <g id="_2356278401904">
   <circle fill="none" stroke="white" stroke-width="10" stroke-miterlimit="22.9256" cx="116" cy="116" r="111"/>
   <path fill="none" stroke="white" stroke-width="10" stroke-miterlimit="22.9256" d="M116 25c24,0 44,20 44,45 0,24 -20,44 -44,44 -25,0 -45,-20 -45,-44 0,-25 20,-45 45,-45z"/>
   <g>
    <path fill="none" stroke="white" stroke-width="10" stroke-miterlimit="22.9256" d="M50 205l0 -34c0,-55 132,-55 132,0l0 34"/>
    <polyline fill="none" stroke="white" stroke-width="10" stroke-miterlimit="22.9256" points="133,132 128,153 116,153 104,153 99,132 "/>
    <polygon fill="none" stroke="white" stroke-width="10" stroke-miterlimit="22.9256" points="116,153 104,153 101,192 116,209 131,192 128,153 "/>
   </g>
  </g>
 </g>
</svg>
