<svg width="5" height="5" viewBox="0 0 5 5" fill="none" xmlns="http://www.w3.org/2000/svg">
<path d="M0.542612 2.38535C0.344512 2.46415 0.241024 2.54095 0.231424 2.61635C0.213224 2.76095 0.421611 2.80595 0.683511 2.89135C0.897211 2.96045 1.18442 3.04185 1.33402 3.04525C1.46932 3.04835 1.62061 2.99195 1.78761 2.87775C2.92681 2.10805 3.51529 1.71975 3.55219 1.71125C3.57819 1.70525 3.61419 1.69795 3.63889 1.71975C3.66329 1.74105 3.66162 1.78235 3.65852 1.79375C3.63782 1.88165 2.5677 2.85555 2.5059 2.91935C2.2703 3.16405 2.00249 3.31365 2.41599 3.58575C2.77319 3.82165 2.98132 3.97155 3.34892 4.21315C3.58452 4.36705 3.76901 4.55045 4.01191 4.52775C4.12361 4.51755 4.23931 4.41235 4.29801 4.09915C4.43691 3.35785 4.70902 1.75235 4.77192 1.09105C4.77732 1.03315 4.77021 0.958647 4.76481 0.926347C4.75941 0.893747 4.74751 0.847246 4.70561 0.812646C4.65511 0.772446 4.578 0.763646 4.54341 0.764146C4.38581 0.767346 4.14461 0.851247 2.98271 1.33425C2.57531 1.50315 1.76211 1.85355 0.542612 2.38535Z" fill="white"/>
</svg>
