<?xml version="1.0" encoding="UTF-8"?>
<!DOCTYPE svg PUBLIC "-//W3C//DTD SVG 1.0//EN" "http://www.w3.org/TR/2001/REC-SVG-20010904/DTD/svg10.dtd">
<!-- Creator: CorelDRAW 2018 (64-Bit) -->
<svg xmlns="http://www.w3.org/2000/svg" xml:space="preserve" width="37px" height="37px" version="1.0" shape-rendering="geometricPrecision" text-rendering="geometricPrecision" image-rendering="optimizeQuality" fill-rule="evenodd" clip-rule="evenodd"
viewBox="0 0 127 127"
 xmlns:xlink="http://www.w3.org/1999/xlink">
 <g id="Слой_x0020_1">
  <metadata id="CorelCorpID_0Corel-Layer"/>
  <g>
   <path fill="white" d="M63 0c18,0 34,7 45,19l0 0c12,11 19,27 19,44 0,18 -7,34 -19,45 -11,12 -27,19 -45,19 -17,0 -33,-7 -44,-19l0 0c-12,-11 -19,-27 -19,-45 0,-17 7,-33 19,-44 11,-12 27,-19 44,-19zm0 3c34,0 60,27 60,60 0,34 -26,60 -60,60 -33,0 -60,-26 -60,-60 0,-33 27,-60 60,-60z"/>
  </g>
  <path fill="white" fill-rule="nonzero" d="M31 63c-3,1 -5,2 -5,3 0,2 3,3 7,4 3,1 7,2 9,2 2,0 4,0 6,-2 17,-11 25,-17 26,-17 0,0 1,0 1,0 0,1 0,1 0,1 0,2 -15,16 -16,16 -4,4 -7,6 -2,10 6,3 9,6 14,9 3,2 6,5 9,5 2,-1 4,-2 4,-7 2,-10 6,-33 7,-43 0,-1 0,-2 0,-2 0,-1 0,-1 -1,-2 0,0 -2,0 -2,0 -2,0 -6,1 -22,8 -6,2 -18,7 -35,15z"/>
 </g>
</svg>
