<?xml version="1.0" encoding="UTF-8"?>
<!DOCTYPE svg PUBLIC "-//W3C//DTD SVG 1.0//EN" "http://www.w3.org/TR/2001/REC-SVG-20010904/DTD/svg10.dtd">
<!-- Creator: CorelDRAW 2018 (64-Bit) -->
<svg xmlns="http://www.w3.org/2000/svg" xml:space="preserve" width="37px" height="37px" version="1.0" shape-rendering="geometricPrecision" text-rendering="geometricPrecision" image-rendering="optimizeQuality" fill-rule="evenodd" clip-rule="evenodd"
viewBox="0 0 115 115"
 xmlns:xlink="http://www.w3.org/1999/xlink">
 <g id="Слой_x0020_1">
  <metadata id="CorelCorpID_0Corel-Layer"/>
  <path fill="white" fill-rule="nonzero" d="M42 31c-8,5 -14,14 -15,23 -1,6 1,13 4,19 -1,5 -3,10 -4,15 5,-1 11,-2 16,-4 5,3 11,4 17,4 11,-1 20,-7 25,-16 4,-7 5,-16 3,-24 -3,-9 -11,-17 -21,-20 -8,-3 -18,-2 -25,3zm2 13c2,-2 4,-1 6,-1 1,2 2,5 3,8 -1,1 -2,2 -3,4 3,4 7,8 12,10 1,-2 3,-3 4,-5 3,2 5,3 8,4 0,5 -3,8 -8,8 -9,-1 -17,-8 -22,-16 -2,-3 -3,-9 0,-12z"/>
  <g>
   <path fill="white" d="M53 0l8 0 0 0c7,0 13,2 19,5 6,2 12,6 17,11l0 0c6,5 10,11 13,18 3,7 5,15 5,23l0 0c0,7 -1,14 -4,21 -3,7 -7,14 -12,19l0 0c-5,6 -12,10 -19,13 -7,3 -14,5 -22,5l0 0c-7,0 -14,-1 -20,-4 -7,-2 -13,-6 -18,-10l0 0c-7,-6 -12,-13 -15,-20 -3,-7 -5,-15 -5,-23 0,-8 1,-15 4,-21 2,-7 6,-13 11,-18l0 0c5,-6 11,-10 17,-13 6,-3 13,-5 21,-6l0 0zm0 3l8 0c12,1 25,6 34,15 10,10 17,24 17,39 0,14 -6,28 -15,38 -10,10 -25,17 -39,17 -13,0 -26,-5 -36,-14 -12,-10 -19,-25 -19,-40 0,-14 5,-27 14,-37 9,-10 22,-17 36,-18zm0 -3l0 0z"/>
  </g>
 </g>
</svg>
