<svg width="11" height="10" viewBox="0 0 11 10" fill="none" xmlns="http://www.w3.org/2000/svg">
<path d="M5.55089 1.60838L5.72918 1.43009C6.73488 0.424593 8.38018 0.424593 9.38558 1.43009C10.3911 2.43549 10.3911 4.08066 9.38558 5.08646L8.84389 5.62818M4.5602 7.70139C4.3402 7.92139 3.98079 7.92139 3.76079 7.70139C3.54089 7.48179 3.54089 7.12178 3.76049 6.90208L5.53808 5.12449C5.55828 5.10349 5.55798 5.06978 5.53728 5.04908C5.51628 5.02808 5.48198 5.02808 5.46078 5.04908L5.0497 5.46009L3.68429 6.82548C3.46429 7.04548 3.10488 7.04548 2.88488 6.82548C2.66488 6.60578 2.66488 6.24609 2.88488 6.02619L4.3521 4.55888L4.6614 4.24967C4.6824 4.22867 4.6824 4.19407 4.6614 4.17317C4.6404 4.15217 4.60609 4.15217 4.58489 4.17317L4.2773 4.48097L2.8084 5.94959C2.5884 6.16959 2.22899 6.16959 2.00899 5.94959C1.78899 5.72989 1.78899 5.37018 2.00899 5.15028L4.3558 2.80348L4.7467 2.41279L5.609 3.30827C6.3412 4.04047 7.0586 3.80687 7.4164 3.51637L5.52959 1.62989" stroke="white" stroke-width="0.3597" stroke-miterlimit="22.9256"/>
<path d="M7.2644 4.88826C7.4844 4.66866 7.84408 4.66866 8.06408 4.88826L8.6679 5.49205C8.8876 5.71205 8.8876 6.07177 8.6679 6.29177C8.4479 6.51147 8.08819 6.51147 7.86819 6.29177L7.2644 5.68795C7.0448 5.46795 7.0448 5.10826 7.2644 4.88826ZM4.6665 7.48626C4.8865 7.26656 5.24619 7.26656 5.46609 7.48626L6.06988 8.09005C6.28958 8.30995 6.2896 8.66977 6.0696 8.88967C5.85 9.10937 5.49019 9.10937 5.27029 8.88967L4.6665 8.28585C4.4465 8.06595 4.4465 7.70626 4.6665 7.48626ZM5.53249 6.62026C5.75239 6.40056 6.11218 6.40056 6.33208 6.62026L6.9359 7.22405C7.1556 7.44405 7.1556 7.80377 6.9359 8.02367C6.7162 8.24337 6.35618 8.24337 6.13628 8.02367L5.53249 7.41997C5.31279 7.19997 5.31249 6.84026 5.53249 6.62026ZM6.39849 5.75426C6.61839 5.53456 6.97808 5.53456 7.19808 5.75426L7.8019 6.35805C8.0216 6.57805 8.0216 6.93777 7.8019 7.15777C7.5819 7.37737 7.22219 7.37737 7.00219 7.15777L6.39849 6.55398C6.17879 6.33398 6.17849 5.97426 6.39849 5.75426Z" stroke="white" stroke-width="0.3597" stroke-miterlimit="22.9256"/>
<path d="M1.8738 5.28687L1.73598 5.14877C0.730584 4.14337 0.730584 2.49817 1.73598 1.49237C2.74148 0.486971 4.38699 0.486971 5.39239 1.49237L5.5302 1.63046" stroke="white" stroke-width="0.3597" stroke-miterlimit="22.9256"/>
</svg>
