<svg width="6" height="5" viewBox="0 0 6 5" fill="none" xmlns="http://www.w3.org/2000/svg">
<path d="M1.13199 1.31189C1.27659 1.10579 1.55011 1.17529 1.76501 1.13979C1.90191 1.47039 2.03711 1.80029 2.17401 2.13199C2.05551 2.29919 1.93729 2.46419 1.81879 2.62769C2.13909 3.16889 2.6131 3.63319 3.22 3.83099C3.4153 3.67999 3.57321 3.48779 3.74301 3.30979C4.07661 3.46569 4.408 3.62609 4.7326 3.79819C4.6932 4.29389 4.3122 4.71889 3.7951 4.70499C2.63581 4.62299 1.68309 3.77459 1.09399 2.82299C0.799494 2.37659 0.736888 1.72039 1.13199 1.31189Z" fill="white"/>
<path d="M5.50641 2.35113L5.26889 2.38623L5.24991 2.27653L5.22549 2.16913L5.19571 2.06423L5.16141 1.96193L5.12201 1.86213L5.07809 1.76493L5.02991 1.67083L4.9772 1.57923L4.9202 1.49083L4.85931 1.40573L4.7944 1.32383L4.72601 1.24533L4.65381 1.17043L4.5784 1.09903L4.4996 1.03153L4.4176 0.967529L4.33289 0.90803L4.2453 0.852129L4.15491 0.800829L4.06219 0.753531L3.96719 0.71073L3.87 0.672729L3.77081 0.638929L3.66989 0.610331L3.5672 0.586529L3.46259 0.567829L3.35721 0.55393L3.25 0.545429L3.142 0.54203L3.0332 0.54463L2.92319 0.552229L2.81271 0.56613L2.7775 0.32863L2.89999 0.31353L3.02191 0.304729L3.14319 0.302229L3.26309 0.30563L3.38211 0.315229L3.49951 0.33033L3.61539 0.351229L3.73001 0.37793L3.84219 0.409929L3.95221 0.447029L4.06021 0.48963L4.16589 0.53693L4.2688 0.589329L4.3689 0.64633L4.46671 0.708429L4.56049 0.774729L4.65149 0.845629L4.7388 0.920429L4.82269 0.99983L4.90289 1.08313L4.97919 1.17023L5.0509 1.26123L5.11859 1.35583L5.18188 1.45393L5.24081 1.55573L5.29471 1.66063L5.34311 1.76863L5.38708 1.87973L5.42542 1.99333L5.45801 2.11013L5.4852 2.22953L5.50641 2.35113ZM4.302 2.53023L4.06439 2.56543L4.05621 2.51783L4.04541 2.47073L4.03241 2.42483L4.0174 2.38003L4.0004 2.33613L3.98111 2.29413L3.96011 2.25303L3.93719 2.21303L3.9119 2.17453L3.88559 2.13713L3.85721 2.10133L3.82751 2.06703L3.79599 2.03443L3.76309 2.00333L3.72849 1.97383L3.69281 1.94573L3.6557 1.91963L3.6171 1.89553L3.5777 1.87263L3.53751 1.85223L3.49609 1.83383L3.45361 1.81703L3.41019 1.80233L3.366 1.78983L3.3212 1.77933L3.27579 1.77143L3.2291 1.76523L3.18289 1.76153L3.1358 1.76013L3.08789 1.76123L3.04001 1.76463L2.99149 1.77053L2.95639 1.53303L3.01682 1.52533L3.07709 1.52143L3.13641 1.52023L3.19589 1.52173L3.25461 1.52653L3.3121 1.53383L3.36938 1.54413L3.42609 1.55743L3.4816 1.57323L3.5358 1.59143L3.58911 1.61213L3.6412 1.63563L3.69229 1.66173L3.7413 1.68983L3.78891 1.72013L3.83569 1.75303L3.88049 1.78783L3.92361 1.82473L3.9649 1.86383L4.0043 1.90493L4.04199 1.94773L4.07779 1.99313L4.1109 2.03953L4.14182 2.08773L4.17099 2.13793L4.19769 2.18983L4.2215 2.24313L4.24301 2.29783L4.26199 2.35393L4.27789 2.41123L4.2915 2.47013L4.302 2.53023ZM4.88031 2.44433L4.6427 2.47953L4.62939 2.40183L4.61209 2.32583L4.59109 2.25193L4.56671 2.17933L4.539 2.10873L4.50781 2.04013L4.47379 1.97323L4.43631 1.90863L4.39639 1.84623L4.3533 1.78613L4.30771 1.72833L4.25891 1.67273L4.20789 1.61973L4.1543 1.56933L4.09869 1.52143L4.04089 1.47633L3.9808 1.43413L3.91901 1.39473L3.85501 1.35843L3.78949 1.32493L3.72198 1.29463L3.65369 1.26773L3.5834 1.24393L3.51199 1.22353L3.43939 1.20673L3.36569 1.19343L3.29111 1.18383L3.21521 1.17783L3.13861 1.17533L3.0618 1.17703L2.98389 1.18263L2.90561 1.19233L2.87051 0.954729L2.9606 0.944029L3.05051 0.937229L3.1398 0.93553L3.22821 0.93803L3.31549 0.945129L3.40201 0.955929L3.48761 0.971529L3.57211 0.99103L3.65479 1.01483L3.7359 1.04203L3.81561 1.07353L3.89319 1.10843L3.9689 1.14693L4.0426 1.18893L4.11459 1.23453L4.18381 1.28353L4.2507 1.33543L4.31531 1.39073L4.3768 1.44913L4.43579 1.51063L4.49191 1.57473L4.54489 1.64163L4.59479 1.71133L4.6416 1.78393L4.68469 1.85873L4.7243 1.93583L4.7601 2.01523L4.79239 2.09713L4.82071 2.18103L4.84451 2.26693L4.86469 2.35483L4.88031 2.44433Z" fill="white"/>
</svg>
