<svg width="6" height="5" viewBox="0 0 6 5" fill="none" xmlns="http://www.w3.org/2000/svg">
<path d="M1.80151 0.363354C1.17141 0.748354 0.744212 1.43965 0.677612 2.17415C0.618612 2.67025 0.757487 3.16345 0.979187 3.60335C0.873187 4.01415 0.755798 4.42205 0.646698 4.83215C1.0659 4.72785 1.48319 4.61275 1.90359 4.50845C2.32309 4.70745 2.78851 4.83415 3.25681 4.78375C4.04631 4.72645 4.78469 4.24085 5.15799 3.54525C5.46189 2.99475 5.52399 2.32295 5.35159 1.72115C5.13759 0.975053 4.53301 0.356254 3.79291 0.122454C3.13461 -0.0918465 2.38861 -0.000346184 1.80151 0.363354ZM2.0192 1.39855C2.1111 1.26735 2.2845 1.31155 2.4212 1.28885C2.5082 1.49895 2.59379 1.70865 2.68079 1.91905C2.60599 2.02535 2.5306 2.13025 2.4552 2.23395C2.6587 2.57775 2.95971 2.87285 3.34531 2.99845C3.46941 2.90235 3.56979 2.78015 3.67749 2.66705C3.88919 2.76635 4.10011 2.86805 4.30591 2.97745C4.28071 3.29245 4.0389 3.56225 3.7106 3.55345C2.9745 3.50105 2.36899 2.96245 1.99509 2.35815C1.80769 2.07435 1.7681 1.65765 2.0192 1.39855Z" fill="white"/>
</svg>
